<svg width="132" height="28" viewBox="0 0 132 28" fill="none" xmlns="http://www.w3.org/2000/svg" role="img" aria-label="DaeIsBae logo">
  <g transform="matrix(0.179 0 0 0.179 -2.84 -10.54)">
    <path
      d="M76 176H176C194.777 176 210 160.777 210 142C210 124.925 197.404 110.791 180.926 108.392C176.382 86.5597 156.981 70 134 70C116.539 70 101.062 79.5792 92.9096 94.0496C89.1032 92.7184 85.0192 92 80.8 92C61.0288 92 45 108.029 45 127.8C45 129.678 45.1472 131.522 45.4304 133.32C34.2048 139.023 27 150.714 27 164C27 181.673 41.3269 196 59 196H76"
      stroke="#22C55E"
      stroke-width="12"
      stroke-linecap="round"
      stroke-linejoin="round"
    />
    <path
      d="M128 98C113.6 108 98.4 112.8 88 116V148.5C88 175.2 106.9 195.2 128 204C149.1 195.2 168 175.2 168 148.5V116C157.6 112.8 142.4 108 128 98Z"
      fill="#16A34A"
    />
    <path
      d="M111 150.5L122.5 162L147 137.5"
      stroke="#FFFFFF"
      stroke-width="12"
      stroke-linecap="round"
      stroke-linejoin="round"
    />
  </g>

  <text
    x="40"
    y="14"
    fill="#22C55E"
    font-family="ui-sans-serif, system-ui, -apple-system, Segoe UI, Roboto, Helvetica, Arial"
    font-size="20"
    font-weight="800"
    letter-spacing="-0.02em"
    dominant-baseline="middle"
  >
    Dae
  </text>
</svg>
